{"title":"FILMISTAAN (2014) - 1CD - DVDRIP - Hindi - x264 - Mp3 - ESUBS -","uid":10740278,"size":740449286,"categoryP":"video","categoryS":"movies","magnet":"?xt=urn:btih:a95685dbb70873dfda81925b0863d24798162850&amp;dn=FILMISTAAN+%282014%29+-+1CD+-+DVDRIP+-+Hindi+-+x264+-+Mp3+-+ESUBS+-+&amp;tr=udp%3A%2F%2Ftracker.openbittorrent.com%3A80&amp;tr=udp%3A%2F%2Fopen.demonii.com%3A1337&amp;tr=udp%3A%2F%2Ftracker.coppersurfer.tk%3A6969&amp;tr=udp%3A%2F%2Fexodus.desync.com%3A6969","seeders":19,"leechers":6,"uploader":"inovai","files":4,"time":1407743358,"description":"Cover:  &lt;a href=&quot;\nhttp://forum.primetimeshow.in/viewtopic.php?f=7&amp;t=577&quot; rel=&quot;nofollow&quot; target=&quot;_NEW&quot;&gt;\nhttp://forum.primetimeshow.in/viewtopic.php?f=7&amp;t=577&lt;/a&gt;\n\nScreenshots:\n &lt;a href=&quot;\nhttp://img.primetimeshow.in/share.php?id=AF25_53E85875&quot; rel=&quot;nofollow&quot; target=&quot;_NEW&quot;&gt;\nhttp://img.primetimeshow.in/share.php?id=AF25_53E85875&lt;/a&gt;\n &lt;a href=&quot;\nhttp://img.primetimeshow.in/share.php?id=B0FF_53E85875&quot; rel=&quot;nofollow&quot; target=&quot;_NEW&quot;&gt;\nhttp://img.primetimeshow.in/share.php?id=B0FF_53E85875&lt;/a&gt;\n &lt;a href=&quot;\nhttp://img.primetimeshow.in/share.php?id=6795_53E85875&quot; rel=&quot;nofollow&quot; target=&quot;_NEW&quot;&gt;\nhttp://img.primetimeshow.in/share.php?id=6795_53E85875&lt;/a&gt;\n &lt;a href=&quot;\nhttp://img.primetimeshow.in/share.php?id=6277_53E85875&quot; rel=&quot;nofollow&quot; target=&quot;_NEW&quot;&gt;\nhttp://img.primetimeshow.in/share.php?id=6277_53E85875&lt;/a&gt;\n &lt;a href=&quot;\nhttp://img.primetimeshow.in/share.php?id=3718_53E85875&quot; rel=&quot;nofollow&quot; target=&quot;_NEW&quot;&gt;\nhttp://img.primetimeshow.in/share.php?id=3718_53E85875&lt;/a&gt;\n\nGeneral Info:\nUnique ID : 245227481365017167805149988257650072959 (0xB87D184EF46F1480BDCC2876E28A5D7F)\nComplete name : FILMISTAAN (2014) - 1CD - DVDRIP - Hindi - x264 - Mp3 - ESUBS - TEAMTNT EXCLUSIVE.mkv\nFormat : Matroska\nFormat version : Version 2\nFile size : 700 MiB\nDuration : 1h 46mn\nOverall bit rate : 924 Kbps\nEncoded date : UTC 2014-08-10 11:09:11\nWriting application : mkvmerge v7.1.0 ('Good Love') 32bit built on Jul 27 2014 12:59:18\nWriting library : libebml v1.3.0 + libmatroska v1.4.1\n\n\nVideo\nID : 1\nFormat : AVC\nFormat/Info : Advanced Video Codec\nFormat profile : &lt;a class=&quot;__cf_email__&quot; href=&quot;/cdn-cgi/l/email-protection&quot; data-cfemail=&quot;5119383639111d627f61&quot;&gt;[email&amp;#160;protected]&lt;/a&gt;&lt;script cf-hash='f9e31' type=&quot;text/javascript&quot;&gt;\n/* &lt;![CDATA[ */!function(){try{var t=&quot;currentScript&quot;in document?document.currentScript:function(){for(var t=document.getElementsByTagName(&quot;script&quot;),e=t.length;e--;)if(t[e].getAttribute(&quot;cf-hash&quot;))return t[e]}();if(t&amp;&amp;t.previousSibling){var e,r,n,i,c=t.previousSibling,a=c.getAttribute(&quot;data-cfemail&quot;);if(a){for(e=&quot;&quot;,r=parseInt(a.substr(0,2),16),n=2;a.length-n;n+=2)i=parseInt(a.substr(n,2),16)^r,e+=String.fromCharCode(i);e=document.createTextNode(e),c.parentNode.replaceChild(e,c)}}}catch(u){}}();/* ]]&gt; */&lt;/script&gt;\nFormat settings, CABAC : Yes\nFormat settings, ReFrames : 4 frames\nCodec ID : V_MPEG4/ISO/AVC\nDuration : 1h 46mn\nBit rate : 842 Kbps\nWidth : 640 pixels\nHeight : 272 pixels\nDisplay aspect ratio : 2.35:1\nFrame rate mode : Constant\nFrame rate : 29.970 fps\nColor space : YUV\nChroma subsampling : 4:2:0\nBit depth : 8 bits\nScan type : Progressive\nBits/(Pixel*Frame) : 0.161\nStream size : 626 MiB (89%)\nLanguage : English\nDefault : Yes\nForced : No\n\n\nAudio\nID : 2\nFormat : MPEG Audio\nFormat version : Version 1\nFormat profile : Layer 3\nMode : Joint stereo\nMode extension : MS Stereo\nCodec ID : A_MPEG/L3\nCodec ID/Hint : MP3\nDuration : 1h 46mn\nBit rate mode : Constant\nBit rate : 80.0 Kbps\nChannel(s) : 2 channels\nSampling rate : 32.0 KHz\nCompression mode : Lossy\nStream size : 60.7 MiB (9%)\nWriting library : LAME3.99r\nDefault : Yes\nForced : No\n\n\n\n\nSAMPLE WITH IN TORRENT\n\nTHanks to TeamTNT for source and Mafiaking for encodes!!","torrent":{"xt":"urn:btih:a95685dbb70873dfda81925b0863d24798162850","amp;dn":"FILMISTAAN+%282014%29+-+1CD+-+DVDRIP+-+Hindi+-+x264+-+Mp3+-+ESUBS+-+","amp;tr":["udp%3A%2F%2Ftracker.openbittorrent.com%3A80","udp%3A%2F%2Fopen.demonii.com%3A1337","udp%3A%2F%2Ftracker.coppersurfer.tk%3A6969","udp%3A%2F%2Fexodus.desync.com%3A6969"],"infoHash":"a95685dbb70873dfda81925b0863d24798162850","infoHashBuffer":{"type":"Buffer","data":[169,86,133,219,183,8,115,223,218,129,146,91,8,99,210,71,152,22,40,80]},"announce":[],"urlList":[]}}